<?xml version="1.0" encoding="UTF-8" standalone="no"?>
<svg
   xmlns:dc="http://purl.org/dc/elements/1.1/"
   xmlns:cc="http://creativecommons.org/ns#"
   xmlns:rdf="http://www.w3.org/1999/02/22-rdf-syntax-ns#"
   xmlns:svg="http://www.w3.org/2000/svg"
   xmlns="http://www.w3.org/2000/svg"
   viewBox="0 0 2206.3601 800"
   height="800"
   width="2206.3601"
   xml:space="preserve"
   id="svg2"
   version="1.1"><metadata
     id="metadata8"><rdf:RDF><cc:Work
         rdf:about=""><dc:format>image/svg+xml</dc:format><dc:type
           rdf:resource="http://purl.org/dc/dcmitype/StillImage" /></cc:Work></rdf:RDF></metadata><defs
     id="defs6" /><g
     transform="matrix(1.3333333,0,0,-1.3333333,0,800)"
     id="g10"><g
       transform="scale(0.1)"
       id="g12"><path
         id="path14"
         style="fill:#50aee4;fill-opacity:1;fill-rule:nonzero;stroke:none"
         d="M 6000,3000 C 6000,4656.85 4656.86,6000 3000,6000 1343.14,6000 0,4656.85 0,3000 0,1343.14 1343.14,0 3000,0 4656.86,0 6000,1343.14 6000,3000" /><path
         id="path16"
         style="fill:#ffffff;fill-opacity:1;fill-rule:nonzero;stroke:none"
         d="m 5484.27,3458.67 c -63.19,333.74 -242.84,541.64 -426.97,670.19 -190.41,132.94 -418.48,201.26 -650.72,201.26 H 1110.73 c -114.656,0 -158.574,-111.94 -159.007,-168 -0.059,-7.32 0.207,-36.59 0.207,-36.59 0,0 -5.407,-1458.12 4.832,-2236.92 31.105,-459.78 491.768,-459.63 491.768,-459.63 0,0 1504.04,4.41 2225.35,8.89 33.83,0.21 67.61,3.86 100.44,12.07 410.68,102.74 453.17,484.28 448.78,696.96 825.48,-45.86 1407.92,536.63 1261.17,1311.77 m -927.31,-756.75 c -176.05,-21.99 -319.08,-5.49 -319.08,-5.49 v 1077.96 h 216.62 c 143.17,0 281.27,-59.62 374.69,-168.1 65.76,-76.38 118.37,-183.88 118.37,-332.38 0,-362.98 -187.04,-505.98 -390.6,-571.99" /><path
         id="path18"
         style="fill:#f14255;fill-opacity:1;fill-rule:nonzero;stroke:none"
         d="m 2566.14,2033.67 c 35.85,-18.05 58.75,4.37 58.75,4.37 0,0 524.57,478.78 760.89,754.52 210.2,246.67 223.9,662.34 -137.07,817.66 -360.97,155.31 -657.95,-182.72 -657.95,-182.72 -257.55,283.26 -647.34,268.92 -827.63,77.22 -180.28,-191.7 -117.32,-520.72 17.17,-703.84 126.25,-171.89 681.18,-666.5 765.29,-750.15 0,0 6.13,-6.41 20.55,-17.06" /><path
         id="path20"
         style="fill:#3e4453;fill-opacity:1;fill-rule:nonzero;stroke:none"
         d="m 9456.78,1787 c 11.26,-32.51 16.95,-62.89 16.95,-91.09 0,-76.27 -29,-139.82 -86.85,-190.67 -57.93,-50.84 -125,-76.26 -201.26,-76.26 -36.74,0 -72.03,8.48 -105.92,25.42 -33.9,16.95 -62.16,40.92 -84.74,72.03 l -919.4,1211.74 -402.5,-385.56 v -665.18 c 0,-76.26 -24.76,-138.43 -74.14,-186.42 -49.46,-48.06 -113.74,-72.03 -192.79,-72.03 -76.26,0 -139.15,24.7 -188.53,74.14 -49.46,49.4 -74.15,110.82 -74.15,184.31 v 2448.92 c 0,73.4 25.42,134.84 76.27,184.29 50.84,49.39 115.78,74.15 194.89,74.15 76.26,0 138.36,-24.03 186.43,-72.03 47.98,-48.06 72.02,-110.16 72.02,-186.41 V 2983.91 l 1355.8,1334.61 c 64.94,64.95 134.12,97.45 207.6,97.45 64.95,0 120.02,-26.87 165.24,-80.49 45.15,-53.7 67.79,-110.17 67.79,-169.49 0,-59.3 -25.42,-114.39 -76.27,-165.23 l -923.63,-881.27 944.82,-1249.87 c 16.95,-22.64 31.05,-50.19 42.37,-82.62" /><path
         id="path22"
         style="fill:#3e4453;fill-opacity:1;fill-rule:nonzero;stroke:none"
         d="m 11458.7,2930.95 c -57.9,108.71 -135.6,192.78 -233,252.09 -97.5,59.32 -205.5,88.98 -324.1,88.98 -118.7,0 -226.7,-29.66 -324.2,-88.98 -97.4,-59.31 -175.1,-143.38 -233,-252.09 -57.9,-108.76 -86.9,-232.37 -86.9,-370.73 0,-138.43 29,-261.29 86.9,-368.6 57.9,-107.38 135.6,-190.67 233,-249.98 97.5,-59.31 205.5,-88.97 324.2,-88.97 118.6,0 226.6,29.66 324.1,88.97 97.4,59.31 175.1,142.6 233,249.98 57.9,107.31 86.9,230.17 86.9,368.6 0,138.36 -29,261.97 -86.9,370.73 z m 442.7,-978.72 c -101.6,-179.4 -240.8,-318.49 -417.3,-417.33 -176.5,-98.9 -370.7,-148.29 -582.5,-148.29 -214.7,0 -409.6,49.39 -584.7,148.29 -175.2,98.84 -313.6,237.93 -415.25,417.33 -101.69,179.34 -152.53,381.99 -152.53,607.99 0,225.95 50.84,428.6 152.53,608 101.65,179.34 240.05,319.15 415.25,419.44 175.1,100.24 370,150.41 584.7,150.41 211.8,0 406,-50.17 582.5,-150.41 176.5,-100.29 315.7,-240.1 417.3,-419.44 101.7,-179.4 152.6,-382.05 152.6,-608 0,-226 -50.9,-428.65 -152.6,-607.99" /><path
         id="path24"
         style="fill:#3e4453;fill-opacity:1;fill-rule:nonzero;stroke:none"
         d="m 12488.2,2547.52 c -49.4,48 -74.1,108.7 -74.1,182.18 0,70.57 24.7,129.89 74.1,177.95 49.4,47.99 110.9,72.03 184.3,72.03 h 737.3 c 73.4,0 134.8,-24.76 184.3,-74.15 49.4,-49.45 74.1,-110.88 74.1,-184.3 0,-70.64 -24.7,-129.23 -74.1,-175.83 -49.5,-46.61 -110.9,-69.91 -184.3,-69.91 h -737.3 c -73.4,0 -134.9,23.96 -184.3,72.03" /><g
         transform="scale(1.00698)"
         id="g26"><path
           id="path28"
           style="fill:#3e4453;fill-opacity:1;fill-rule:nonzero;stroke:none"
           d="m 16215.8,1492.71 c -47.7,-49.1 -108,-73.63 -180.8,-73.63 -73,0 -133.3,24.53 -181,73.63 -47.8,49.06 -71.6,110.05 -71.6,183.03 v 1737.7 c 0,72.91 23.8,133.93 71.6,183.03 47.7,49.04 108,73.64 181,73.64 72.8,0 133.1,-24.6 180.8,-73.64 47.7,-49.1 71.6,-110.12 71.6,-183.03 v -1737.7 c 0,-72.98 -23.9,-133.97 -71.6,-183.03 z m -387,2497.17 c -39.3,30.84 -59,85.53 -59,164.09 v 79.94 c 0,78.5 21.1,133.2 63.2,164.1 42.1,30.83 109.4,46.28 202,46.28 98.1,0 166.8,-15.45 206.1,-46.28 39.2,-30.9 58.9,-85.6 58.9,-164.1 v -79.94 c 0,-81.39 -20.4,-136.74 -61,-166.2 -40.7,-29.44 -110.1,-44.18 -208.3,-44.18 -95.4,0 -162.7,15.38 -201.9,46.29 z m -892.1,14.73 c -39.2,-54.7 -58.9,-114.34 -58.9,-178.83 v -197.75 h 382.9 c 67.4,0 123.4,-21.76 168.4,-65.22 44.8,-43.51 67.2,-98.87 67.2,-166.19 0,-67.32 -22.4,-122.74 -67.2,-166.19 -45,-43.53 -101,-65.23 -168.4,-65.23 h -382.9 V 1675.74 c 0,-72.98 -23.8,-133.97 -71.5,-183.03 -47.7,-49.1 -108,-73.63 -180.9,-73.63 -73,0 -133.3,24.53 -181,73.63 -47.6,49.06 -71.5,110.05 -71.5,183.03 V 3165.2 h -227.2 c -67.3,0 -123.4,21.7 -168.3,65.23 -44.9,43.45 -67.3,98.87 -67.3,166.19 0,67.32 22.4,122.68 67.3,166.19 44.9,43.46 101,65.22 168.3,65.22 h 227.2 v 193.54 c 0,210.39 72.2,381.44 216.7,513.32 144.4,131.82 352.8,197.76 624.9,197.76 103.6,0 194.1,-21.04 271.3,-63.12 77.1,-42.06 115.8,-106.62 115.8,-193.54 0,-67.33 -19.7,-122.02 -58.9,-164.1 -39.3,-42.07 -87,-63.1 -143.1,-63.1 -14.1,0 -28.8,1.38 -44.2,4.2 -15.4,2.76 -31.6,5.59 -48.4,8.41 -67.3,16.84 -123.4,25.24 -168.3,25.24 -95.3,0 -162.7,-27.35 -202,-82.03" /></g></g></g></svg>