<?xml version="1.0" encoding="iso-8859-1"?>
<!-- Generator: Adobe Illustrator 19.0.0, SVG Export Plug-In . SVG Version: 6.00 Build 0)  -->
<svg version="1.1" id="Capa_1" xmlns="http://www.w3.org/2000/svg" xmlns:xlink="http://www.w3.org/1999/xlink" x="0px" y="0px"
	 viewBox="0 0 512 512" style="enable-background:new 0 0 512 512;" xml:space="preserve">
<g>
	<path style="fill:#BC705F;" d="M198.666,451.71l-25.413,16.395c-11.165,0-20.214,9.05-20.214,20.214V504.5h56.424
		c8.076,0,14.617-6.551,14.617-14.627v-21.769L198.666,451.71z"/>
	<path style="fill:#BC705F;" d="M313.333,451.71l25.413,16.395c11.165,0,20.214,9.05,20.214,20.214V504.5h-56.424
		c-8.076,0-14.617-6.551-14.617-14.627v-21.769L313.333,451.71z"/>
</g>
<g>
	<rect x="173.249" y="402.2" style="fill:#00A6C8;" width="50.826" height="65.906"/>
	<rect x="287.919" y="402.2" style="fill:#00A6C8;" width="50.826" height="65.906"/>
</g>
<path style="fill:#FBC4AC;" d="M96.152,356.821c-19.673,37.999,16.682,50.298,37.851,39.968l18.71-33.938l-12.296-29.51
	L96.152,356.821z"/>
<path style="fill:#E3B098;" d="M116.152,356.821l27.886-14.792l-3.62-8.688l-44.265,23.48
	c-17.998,34.764,10.896,48.013,32.156,42.108C113.803,394.771,103.634,381.001,116.152,356.821z"/>
<path style="fill:#FBC4AC;" d="M415.846,356.821c19.673,37.999-16.682,50.298-37.851,39.968l-18.71-33.938l12.296-29.51
	L415.846,356.821z"/>
<path style="fill:#F0F0F0;" d="M161.921,267.09c0,0-74.622,16.812-65.768,89.731h37.107l33.226-27.415L161.921,267.09z"/>
<path style="fill:#D9D9D9;" d="M162.454,274.371l-0.533-7.281c0,0-74.622,16.812-65.768,89.731h20
	C110.291,308.543,141.016,284.864,162.454,274.371z"/>
<path style="fill:#F0F0F0;" d="M350.078,267.09c0,0,74.622,16.812,65.768,89.731h-37.107l-33.226-27.415L350.078,267.09z"/>
<path style="fill:#E67176;" d="M255.999,356.821l-122.94,20.657c0.197,9.148,0.787,18.965,1.82,29.51l121.12,12.36l121.12-12.36
	c1.033-10.545,1.623-20.362,1.82-29.51L255.999,356.821z"/>
<g>
	<path style="fill:#E3B098;" d="M155.664,173.002l-23.328-26.555c-4.616-5.254-13.226-3.126-14.871,3.671
		c-6.491,26.815-11.995,79.046,44.455,76.848l18.52-21.901L155.664,173.002z"/>
	<path style="fill:#E3B098;" d="M356.334,173.002l23.328-26.555c4.616-5.254,13.226-3.126,14.871,3.671
		c6.491,26.815,11.995,79.046-44.455,76.848l-18.521-21.901L356.334,173.002z"/>
</g>
<path style="fill:#FBC4AC;" d="M350.078,226.966c3.935-16.29,6.256-34.261,6.256-53.964h-200.67c0,19.703,2.321,37.675,6.256,53.964
	l94.079,87.886L350.078,226.966z"/>
<path style="fill:#FF5E6B;" d="M267.118,12.989c-5.611-7.319-16.626-7.319-22.237,0c-22.794,29.733-73.958,100.986-89.216,160.013
	c0,0,45.501,8.853,100.335,8.853s100.335-8.853,100.335-8.853C341.076,113.975,289.911,42.722,267.118,12.989z"/>
<path style="fill:#E63E4C;" d="M255.749,7.514c-4.072,0.072-8.119,1.89-10.868,5.475c-22.794,29.732-73.958,100.986-89.216,160.013
	c0,0,12.922,2.514,33.289,4.862C201.521,120.259,230.832,55.698,255.749,7.514z"/>
<g>
	<path style="fill:#42C3E2;" d="M377.119,406.989c-0.059,0.571-0.118,1.141-0.177,1.721c-1.338,13.044-12.286,22.998-25.408,22.998
		H160.465c-13.122,0-24.071-9.955-25.408-22.998c-0.059-0.58-0.118-1.151-0.177-1.721H377.119z"/>
	<path style="fill:#42C3E2;" d="M378.939,377.478H133.06c-2.203-97.876,39.101-119.084,39.101-119.084h167.677
		C339.838,258.395,381.142,279.603,378.939,377.478z"/>
</g>
<path style="fill:#CC6469;" d="M170.056,408.71c-0.059-0.58-0.118-1.151-0.177-1.721c-1.033-10.545-1.623-20.362-1.82-29.51
	c-0.045-1.991-0.065-3.94-0.075-5.868l-34.925,5.868c0.049,2.287,0.123,4.616,0.222,6.988s0.224,4.786,0.374,7.244
	c0.226,3.687,0.511,7.472,0.857,11.359c0.115,1.296,0.238,2.602,0.367,3.92l35.449,3.617
	C170.218,409.981,170.122,409.351,170.056,408.71z"/>
<g>
	<path style="fill:#00A6C8;" d="M133.06,377.478h35l0,0c-2.203-97.875,39.101-119.083,39.101-119.083h-35
		c0,0-16.951,8.704-28.556,40.692c-0.283,0.78-0.563,1.574-0.839,2.382c-1.105,3.233-2.155,6.69-3.127,10.386
		s-1.868,7.631-2.667,11.817c-0.399,2.094-0.774,4.25-1.122,6.471c-0.87,5.553-1.571,11.51-2.063,17.898s-0.775,13.207-0.809,20.484
		C132.964,371.436,132.991,374.42,133.06,377.478L133.06,377.478z"/>
	<path style="fill:#00A6C8;" d="M195.465,431.708c-13.122,0-24.071-9.955-25.408-22.998c-0.059-0.58-0.118-1.151-0.177-1.721h-35
		c0.059,0.571,0.118,1.141,0.177,1.721c0.084,0.815,0.205,1.618,0.362,2.408c2.353,11.841,12.745,20.591,25.047,20.591h34.999
		V431.708z"/>
</g>
<path style="fill:#999999;" d="M350.078,226.966c-21.936,90.882-94.079,129.855-94.079,129.855s-72.143-38.973-94.079-129.855
	c31.733,21.985,62.876,0,62.876,0H287.2C287.201,226.966,318.345,248.951,350.078,226.966z"/>
<path style="fill:#B3B3B3;" d="M255.999,249.149c33.551,19.159,44.704,2.602,44.704,2.602c-18.449-2.838,0-45.413-44.704-33.205
	c-44.704-12.208-26.255,30.367-44.704,33.205C211.295,251.751,222.448,268.308,255.999,249.149z"/>
<path d="M208.119,216.898c4.142,0,7.5-3.358,7.5-7.5v-8.666c0-4.142-3.358-7.5-7.5-7.5s-7.5,3.358-7.5,7.5v8.666
	C200.619,213.54,203.977,216.898,208.119,216.898z"/>
<path d="M303.878,216.898c4.142,0,7.5-3.358,7.5-7.5v-8.666c0-4.142-3.358-7.5-7.5-7.5s-7.5,3.358-7.5,7.5v8.666
	C296.378,213.54,299.736,216.898,303.878,216.898z"/>
<path d="M351.533,439.208c17,0,31.13-12.783,32.87-29.739c0.089-0.868,0.176-1.736,0.26-2.605c2.955,0.602,6.009,0.926,9.104,0.926
	c13.537,0,25.13-5.773,31.014-15.444c4.252-6.988,7.36-18.989-1.253-36.918c4.214-41.898-17.356-66.316-36.415-79.472
	c-9.121-6.295-18.167-10.336-24.151-12.617c-3.94-1.502-6.812-2.454-8.962-3.021c-0.051-0.052-0.098-0.109-0.149-0.161
	c-1.099-1.124-2.868-2.847-4.876-4.505c2.577-6.7,4.904-13.755,6.909-21.167c17.431-0.483,30.622-6.237,39.208-17.149
	c14.809-18.819,11.833-47.901,6.729-68.984c-1.76-7.27-8.224-12.347-15.719-12.347c-4.609,0-9.01,2.001-12.076,5.491l-14.372,16.36
	c-19.202-57.783-66.178-122.811-86.585-149.431C268.964,3.071,262.742,0,255.998,0c-6.743,0-12.965,3.071-17.07,8.426
	c-7.981,10.41-15.88,21.245-23.479,32.205c-2.36,3.404-1.515,8.077,1.89,10.437c3.404,2.36,8.077,1.514,10.437-1.89
	c7.464-10.764,15.222-21.404,23.058-31.625c1.242-1.623,3.125-2.553,5.165-2.553c2.04,0,3.923,0.93,5.167,2.552
	c20.473,26.706,68.358,92.961,85.685,149.475c-14.789,2.377-48.309,7.001-86.8,7.31c-2.667,0.025-5.402,0.022-8.094,0
	c-38.451-0.31-72.008-4.936-86.809-7.312c8.099-26.463,23.716-57.917,46.512-93.649c2.228-3.492,1.203-8.129-2.289-10.356
	c-3.49-2.228-8.128-1.204-10.356,2.289c-22.178,34.763-37.816,65.81-46.667,92.552l-14.375-16.364
	c-3.065-3.489-7.467-5.49-12.076-5.49c-7.496,0-13.959,5.078-15.719,12.347c-5.103,21.079-8.077,50.157,6.733,68.979
	c8.586,10.913,21.775,16.668,39.205,17.153c2.007,7.422,4.339,14.486,6.919,21.195c-1.488,1.224-3.198,2.77-5.051,4.683
	c-5.812,1.617-21.636,6.764-36.8,18.272c-17.246,13.088-36.713,36.981-32.714,76.795c-8.61,17.925-5.503,29.924-1.252,36.912
	c5.883,9.672,17.478,15.446,31.019,15.447c3.093,0,6.145-0.323,9.1-0.926c-0.125,0.052,0.239,2.397,0.261,2.61
	c1.738,16.951,15.869,29.733,32.869,29.733h5.288v22.435c-11.648,3.28-20.214,13.992-20.214,26.675V504.5c0,4.142,3.358,7.5,7.5,7.5
	h56.423c12.196,0,22.118-9.926,22.118-22.127v-50.665h48.84v50.665c0,12.201,9.922,22.127,22.117,22.127h56.424
	c4.142,0,7.5-3.358,7.5-7.5v-16.182c0-12.683-8.566-23.395-20.214-26.675v-22.435H351.533z M140.82,384.978h165.179
	c4.142,0,7.5-3.358,7.5-7.5s-3.358-7.5-7.5-7.5H140.488c0.002-3.368,0.063-6.734,0.175-10.101
	c1.022-30.662,5.882-66.812,28.568-89.575c29.96,63.775,80.951,91.9,83.204,93.118c2.204,1.191,4.927,1.19,7.13,0
	c2.252-1.217,53.244-29.342,83.205-93.117c0.773,0.776,1.598,1.659,2.456,2.637c6.431,7.331,11.183,16.077,14.747,25.118
	c7.73,19.585,10.647,40.91,11.366,61.85c0.209,3.351,0.173,6.714,0.174,10.07h-37.527c-4.142,0-7.5,3.358-7.5,7.5s3.358,7.5,7.5,7.5
	h37.195c-0.01,0.232-0.019,0.46-0.03,0.693c-0.218,4.61-0.508,9.218-0.885,13.818h-228.53
	C141.57,397.493,140.83,385.216,140.82,384.978z M251.791,189.337c4.556,0.037,9.112,0.003,13.668-0.072
	c0.671-0.011,1.342-0.035,2.013-0.035c36.126-0.768,66.609-4.941,81.173-7.283c-0.042,1.127-0.085,2.254-0.144,3.376
	c-0.614,11.704-2.134,23.291-4.56,34.756c-0.163,0.759-0.339,1.511-0.51,2.267c-0.06,0.037-0.119,0.074-0.179,0.111
	c-9.604,5.88-21.344,8.005-32.413,5.945c-0.118-0.022-0.235-0.045-0.352-0.068c-6.095-1.179-12.084-3.365-17.425-6.541
	c-0.02-0.012-0.039-0.023-0.058-0.034c-0.902-1.681-1.929-3.194-3.072-4.548c-3.974-4.79-10.095-8.359-19.947-8.359
	c-4.164,0-8.757,0.637-13.987,1.943c-5.23-1.306-9.822-1.943-13.988-1.943c-9.875,0-16.002,3.586-19.975,8.392
	c-1.157,1.4-2.183,2.914-3.042,4.514c-0.017,0.01-0.033,0.02-0.05,0.03c-4.804,2.855-10.134,4.882-15.567,6.154
	c-0.023,0.005-0.046,0.01-0.069,0.015c-11.747,2.748-24.261,0.801-34.564-5.5c-0.059-0.036-0.118-0.073-0.177-0.11
	c-0.171-0.756-0.348-1.509-0.511-2.269c-2.456-11.439-3.953-23.07-4.559-34.753c-0.059-1.123-0.102-2.25-0.144-3.377
	c14.564,2.342,45.043,6.515,81.166,7.283C244.599,189.23,249.447,189.317,251.791,189.337z M267.641,246.657
	c-2.551-1.126-5.197-2.464-7.923-4.021c-2.305-1.316-5.134-1.316-7.438,0c-9.462,5.403-18.003,8.259-24.699,8.259
	c-0.306,0-2.812-0.296-2.874-0.19c2.272-3.886,3.415-8.448,4.383-12.319c1.404-5.609,3.182-13.215,9.939-14.324
	c0.982-0.162,1.989-0.212,2.983-0.212c3.281,0,7.323,0.649,12.011,1.93c1.294,0.354,2.658,0.354,3.952,0
	c4.689-1.28,8.73-1.93,12.015-1.93c2.052,0,4.314,0.2,6.191,1.186c0.014,0.007,0.03,0.013,0.044,0.021
	c4.662,2.411,5.539,8.757,6.683,13.328c0.969,3.87,2.111,8.433,4.383,12.319c-0.869,0.12-1.825,0.19-2.874,0.19
	C279.65,250.896,273.945,249.441,267.641,246.657z M175.223,241.713c6.73,2.038,13.804,2.821,20.819,2.404
	c5.655-0.336,11.342-1.472,16.75-3.24c-0.069,0.193-0.141,0.385-0.216,0.575c-0.443,1.119-1.053,2.675-2.421,2.886
	c-1.865,0.288-3.591,1.295-4.757,2.779c-1.977,2.516-2.11,6.171-0.323,8.824c4.841,7.189,14.239,9.955,22.506,9.955
	c8.44,0,17.986-2.757,28.418-8.2c3.041,1.586,6.003,2.938,8.888,4.066c7.012,2.744,13.548,4.134,19.532,4.134
	c0.095,0,0.181-0.009,0.276-0.01c15.156-0.11,21.549-8.933,22.23-9.946c1.05-1.56,1.485-3.523,1.183-5.378
	c-0.516-3.168-3.09-5.736-6.265-6.224c-1.508-0.232-2.115-2.045-2.568-3.27c-0.024-0.064-0.048-0.131-0.072-0.197
	c0.216,0.071,0.446,0.136,0.665,0.206c6.219,1.972,12.772,3.103,19.302,3.159c6.308,0.054,12.75-0.919,18.774-2.885
	c0.084-0.027,0.17-0.051,0.255-0.079c-6.311,19.07-14.863,35.325-23.857,48.823c-15.212,22.732-35.149,43.291-58.343,57.977
	c-7.324-4.637-24.844-16.846-42.686-37.451c-17.439-20.139-31.118-43.904-39.522-69.352
	C174.265,241.427,174.745,241.568,175.223,241.713z M411.967,384.55c-3.092,5.083-10.066,8.24-18.201,8.24
	c-2.698,0-5.399-0.362-7.916-1.045c0.002-0.031,0.003-0.061,0.005-0.092c0.493-8.224,0.72-16.463,0.633-24.702
	c-0.009-0.875-0.005-1.761-0.021-2.63h24.626C413.857,370.857,415.557,378.648,411.967,384.55z M381.748,290.585
	c19.299,14.646,28.438,34.382,27.222,58.736h-23.148c-1.731-24.82-6.492-43.694-12.353-57.993c-0.403-0.995-2.924-6.677-3.828-8.488
	C373.548,284.94,377.68,287.498,381.748,290.585z M385.296,151.397c0.241-0.274,0.482-0.391,0.807-0.391
	c0.218,0,0.943,0.063,1.14,0.876c3.538,14.615,7.731,41.349-3.938,56.179c-5.173,6.574-13.016,10.271-23.873,11.224
	c0.299-1.523,0.579-3.053,0.842-4.583c2.242-12.826,3.398-25.838,3.544-38.855L385.296,151.397z M128.697,208.058
	c-11.671-14.834-7.479-41.563-3.942-56.175c0.197-0.813,0.922-0.876,1.14-0.876c0.325,0,0.566,0.117,0.807,0.39l21.479,24.451
	c0.011,1.01,0.044,2.016,0.067,3.023c0.315,13.55,1.71,27.109,4.319,40.414C141.712,218.33,133.87,214.632,128.697,208.058z
	 M129.83,290.906c4.194-3.224,8.487-5.887,12.546-8.063c-7.221,14.369-13.502,34.519-15.879,62.495
	c-0.084,0.983-0.296,3.642-0.32,3.984h-23.148C101.822,325.15,110.819,305.522,129.83,290.906z M126.148,391.747
	c-2.518,0.683-5.216,1.044-7.916,1.044c-8.134,0-15.108-3.159-18.201-8.243c-3.59-5.902-1.89-13.692,0.873-20.227h24.625
	c-0.036,1.963-0.048,3.969-0.046,5.998c0.006,7.099,0.207,14.205,0.657,21.29C126.143,391.655,126.145,391.7,126.148,391.747z
	 M144.463,414.489h223.07c-3.022,5.827-9.076,9.72-16,9.72H160.465C153.539,424.208,147.485,420.315,144.463,414.489z
	 M216.579,489.873c0,3.93-3.193,7.127-7.118,7.127h-48.923v-8.682c0-7.011,5.704-12.715,12.714-12.715h43.327V489.873z
	 M216.579,460.604h-35.827v-21.396h35.827V460.604z M351.46,488.319V497h-48.924c-3.924,0-7.117-3.197-7.117-7.127v-14.269h43.327
	C345.757,475.604,351.46,481.308,351.46,488.319z M331.246,460.604h-35.827v-21.396h35.827V460.604z"/>
<g>
</g>
<g>
</g>
<g>
</g>
<g>
</g>
<g>
</g>
<g>
</g>
<g>
</g>
<g>
</g>
<g>
</g>
<g>
</g>
<g>
</g>
<g>
</g>
<g>
</g>
<g>
</g>
<g>
</g>
</svg>
