<?xml version="1.0" encoding="utf-8"?>
<!-- Svg Vector Icons : http://www.onlinewebfonts.com/icon -->
<!DOCTYPE svg PUBLIC "-//W3C//DTD SVG 1.1//EN" "http://www.w3.org/Graphics/SVG/1.1/DTD/svg11.dtd">
<svg version="1.1" xmlns="http://www.w3.org/2000/svg" xmlns:xlink="http://www.w3.org/1999/xlink" x="0px" y="0px" viewBox="0 0 1000 1000" enable-background="new 0 0 1000 1000" xml:space="preserve">
<metadata> Svg Vector Icons : http://www.onlinewebfonts.com/icon </metadata>
<g><g transform="translate(0.000000,511.000000) scale(0.100000,-0.100000)"><path d="M147.9,3547.6l-47.9-47.9v-547.4V2405l47.9-45.9l45.9-47.9h543.6c509.1,0,547.4,1.9,589.5,36.4l45.9,36.4v566.6c0,516.8-3.8,568.5-34.4,599.1c-30.6,30.6-86.1,34.4-587.6,40.2l-555.1,5.7L147.9,3547.6z"/><path d="M1564.3,3545.7l-47.9-45.9v-547.4V2405l47.9-45.9l45.9-47.9H2862c1238.4,0,1253.7,0,1303.5,40.2l49.8,38.3v555.1v555.1l-47.9,45.9l-45.9,47.9H2865.8H1610.2L1564.3,3545.7z"/><path d="M4418.1,3553.4l-49.8-38.3v-564.6c0-537.9,1.9-564.6,38.3-601c38.3-38.3,63.2-38.3,1293.9-38.3c781,0,1267.1,7.7,1290.1,19.1c19.1,9.6,44,45.9,55.5,78.5c26.8,80.4,28.7,1004.9,1.9,1083.4c-11.5,32.5-42.1,67-68.9,80.4c-34.5,15.3-400,21.1-1278.6,21.1C4483.2,3593.6,4467.9,3593.6,4418.1,3553.4z"/><path d="M7249,3545.7l-47.9-45.9v-547.4V2405l47.9-45.9l45.9-47.9h1255.6h1255.6l45.9,47.9l47.9,45.9v547.4v547.4l-47.9,45.9l-45.9,47.9H8550.6H7295L7249,3545.7z"/><path d="M182.3,2158c-23-9.6-49.8-34.4-61.2-55.5c-13.4-24.9-21.1-233.5-21.1-581.9c0-541.7,0-543.6,44-583.8l44-42.1h1265.2h1267.1l38.3,49.8c38.3,49.8,40.2,74.6,40.2,585.7c0,312-7.7,549.3-19.1,570.4c-9.6,19.1-45.9,44-78.5,55.5C2626.6,2181,247.4,2182.9,182.3,2158z"/><path d="M3026.6,2156.1c-90-32.5-95.7-82.3-90-656.5l5.7-532.1l45.9-36.4c42.1-34.5,91.9-36.4,1305.4-36.4c1236.5,0,1261.4,0,1299.6,38.3c36.4,36.4,38.3,63.2,38.3,599.1c0,547.4-1.9,562.7-40.2,599.1c-38.3,34.5-90,36.4-1278.6,40.2C3541.5,2173.3,3057.2,2167.6,3026.6,2156.1z"/><path d="M5867.1,2158c-23-9.6-49.8-34.4-61.3-55.5c-13.4-24.9-21-233.5-21-583.8c0-522.5,1.9-549.3,38.3-585.7c38.3-38.3,63.2-38.3,1309.2-38.3h1272.9l38.3,49.8c38.3,49.8,40.2,74.6,40.2,574.2c0,350.3-7.7,537.9-21,570.4c-13.4,26.8-47.9,57.4-80.4,68.9C8311.3,2182.9,5928.3,2182.9,5867.1,2158z"/><path d="M8711.4,2156.1c-88.1-32.5-93.8-76.6-93.8-637.4c0-499.6,1.9-524.4,40.2-574.2l38.3-49.8h560.8h560.8l40.2,44c42.1,44,42.1,55.5,42.1,591.5c0,509.1-1.9,549.3-36.4,591.4l-36.4,45.9l-534,3.8C8983.2,2173.3,8740.1,2167.6,8711.4,2156.1z"/><path d="M138.3,703.3C101.9,667,100,640.2,100,110c0-530.2,1.9-557,38.3-593.3c36.4-36.4,63.2-38.3,601-38.3h564.6l38.3,49.8c38.3,49.8,40.2,74.7,40.2,581.9c0,507.2-1.9,532.1-40.2,581.9l-38.3,49.8H739.3C201.4,741.6,174.6,739.7,138.3,703.3z"/><path d="M1556.6,691.9c-38.3-49.8-40.2-74.6-40.2-581.9c0-507.2,1.9-532.1,40.2-581.9l38.3-49.8h1272.9c1246.1,0,1270.9,0,1309.2,38.3c36.4,36.4,38.3,63.1,38.3,593.3c0,530.2-1.9,557-38.3,593.4c-38.3,38.3-63.2,38.3-1309.2,38.3H1594.9L1556.6,691.9z"/><path d="M4400.9,707.2c-28.7-30.6-32.5-101.5-32.5-601c0-522.5,1.9-566.6,34.4-595.3c32.5-30.6,151.2-32.5,1309.2-32.5c1269,0,1272.9,0,1309.2,40.2c34.5,38.3,36.4,76.6,36.4,591.4s-1.9,553.2-36.4,591.4c-36.4,40.2-40.2,40.2-1313,40.2C4496.6,741.6,4429.6,739.7,4400.9,707.2z"/><path d="M7239.5,699.5c-36.4-40.2-38.3-65.1-38.3-593.4c0-526.4,1.9-553.2,38.3-589.5c38.3-38.3,63.2-38.3,1311.1-38.3s1272.9,0,1311.1,38.3c36.4,36.4,38.3,63.1,38.3,593.3c0,530.2-1.9,557-38.3,593.4c-38.3,38.3-63.2,38.3-1311.1,38.3H7279.6L7239.5,699.5z"/><path d="M142.1-718.8c-42.1-44-42.1-55.5-42.1-591.4c0-509.1,1.9-549.3,36.4-591.4l36.4-45.9h1276.7h1276.7l36.4,45.9c34.5,42.1,36.4,80.4,36.4,585.7c0,516.8-1.9,541.7-40.2,591.4l-38.3,49.8h-1269h-1269L142.1-718.8z"/><path d="M2988.3-711.1l-45.9-36.4l-5.7-532.1c-5.7-574.2,0-620.1,88-656.5c36.4-15.3,417.3-21,1290.1-17.2c1184.8,5.8,1238.4,7.7,1276.7,42.1c38.3,36.4,40.2,51.7,40.2,599.1c0,535.9-1.9,562.7-38.3,599.1c-38.3,38.3-63.2,38.3-1299.6,38.3C3080.2-674.8,3030.4-676.7,2988.3-711.1z"/><path d="M5826.9-713c-42.1-38.3-42.1-47.9-42.1-591.5c0-514.9,1.9-555.1,36.4-597.2l36.4-45.9l1242.2-5.8c1318.8-5.7,1332.2-3.8,1366.6,86.1c9.6,24.9,17.2,283.3,17.2,572.3v526.4l-47.9,45.9l-45.9,47.9H7128.4C5886.2-674.8,5867.1-674.8,5826.9-713z"/><path d="M8665.4-722.6l-47.9-45.9v-526.4c0-350.3,7.7-541.7,21-574.2c38.3-84.2,88.1-90,656.5-84.2l532.1,5.8l36.4,45.9c34.5,42.1,36.4,82.3,36.4,593.4v551.2l-44,40.2c-44,42.1-55.5,42.1-595.3,42.1h-549.3L8665.4-722.6z"/><path d="M147.9-2139L100-2185v-547.4v-547.4l47.9-47.9l47.9-47.9l555.1,5.7c501.5,5.8,557,9.6,587.6,40.2c30.6,30.7,34.4,82.3,34.4,599.1v566.6l-45.9,36.4c-42.1,34.5-80.4,36.4-589.5,36.4H193.8L147.9-2139z"/><path d="M1564.3-2139l-47.9-45.9v-547.4v-547.4l47.9-45.9l45.9-47.9H2862c1238.4,0,1253.7,0,1303.5,40.2l49.8,38.3v562.7v562.7l-49.8,38.3c-49.8,40.2-65.1,40.2-1303.5,40.2H1610.2L1564.3-2139z"/><path d="M4406.6-2129.5c-36.4-36.4-38.3-63.2-38.3-597.2c0-308.2,7.7-570.4,15.3-581.8c40.2-63.2,95.7-65.1,1322.6-65.1c874.7,0,1238.4,5.7,1272.9,21c26.8,13.4,57.4,47.9,68.9,80.4c26.8,78.5,24.9,1003-1.9,1083.4c-11.5,32.5-36.4,68.9-55.5,78.5c-23,11.5-509.1,19.1-1290.1,19.1C4469.8-2091.2,4444.9-2091.2,4406.6-2129.5z"/><path d="M7249-2139l-47.9-45.9v-547.4v-547.4l47.9-45.9l45.9-47.9h1255.6h1255.6l45.9,47.9l47.9,45.9v547.4v547.4l-47.9,45.9l-45.9,47.9H8550.6H7295L7249-2139z"/></g></g>
</svg>